<svg xmlns="http://www.w3.org/2000/svg" width="1200" height="800" viewBox="0 0 1200 800"><title>d-06 — Healthcare Card Wall dashboard mockup</title><rect width="1200" height="800" fill="#1a1b26"/><rect x="0" y="0" width="1200" height="68" fill="#24273f"/><circle cx="36" cy="34" r="16" fill="#a78bfa"/><rect x="120" y="26" width="72" height="16" rx="8" fill="#8b90a7" opacity="0.5"/><rect x="220" y="26" width="72" height="16" rx="8" fill="#8b90a7" opacity="0.5"/><rect x="320" y="26" width="72" height="16" rx="8" fill="#8b90a7" opacity="0.5"/><rect x="420" y="26" width="72" height="16" rx="8" fill="#8b90a7" opacity="0.5"/><text x="20" y="120" font-size="30" font-weight="800" fill="#e6e8f2" font-family="Arial,sans-serif">Healthcare · Card Wall</text><text x="20" y="144" font-size="15" fill="#8b90a7" font-family="Arial,sans-serif">Operations overview · live demo data</text><rect x="20" y="164" width="278" height="104" rx="12" fill="#24273f"/><text x="36" y="194" font-size="14" fill="#8b90a7" font-family="Arial,sans-serif">Patients today</text><text x="36" y="230" font-size="26" font-weight="800" fill="#e6e8f2" font-family="Arial,sans-serif">248</text><rect x="36" y="244" width="172.2" height="8" rx="4" fill="#a78bfa" opacity="0.8"/><rect x="314" y="164" width="278" height="104" rx="12" fill="#24273f"/><text x="330" y="194" font-size="14" fill="#8b90a7" font-family="Arial,sans-serif">Available beds</text><text x="330" y="230" font-size="26" font-weight="800" fill="#e6e8f2" font-family="Arial,sans-serif">36</text><rect x="330" y="244" width="209.1" height="8" rx="4" fill="#a78bfa" opacity="0.8"/><rect x="608" y="164" width="278" height="104" rx="12" fill="#24273f"/><text x="624" y="194" font-size="14" fill="#8b90a7" font-family="Arial,sans-serif">Avg wait</text><text x="624" y="230" font-size="26" font-weight="800" fill="#e6e8f2" font-family="Arial,sans-serif">18m</text><rect x="624" y="244" width="98.4" height="8" rx="4" fill="#a78bfa" opacity="0.8"/><rect x="902" y="164" width="278" height="104" rx="12" fill="#24273f"/><text x="918" y="194" font-size="14" fill="#8b90a7" font-family="Arial,sans-serif">Satisfaction</text><text x="918" y="230" font-size="26" font-weight="800" fill="#e6e8f2" font-family="Arial,sans-serif">96%</text><rect x="918" y="244" width="135.3" height="8" rx="4" fill="#a78bfa" opacity="0.8"/><rect x="20" y="288" width="1160" height="250" rx="12" fill="#24273f"/><circle cx="600" cy="413" r="109" fill="none" stroke="#8b90a7" stroke-width="26" opacity="0.35"/><circle cx="600" cy="413" r="109" fill="none" stroke="#a78bfa" stroke-width="26" stroke-dasharray="466 685" stroke-linecap="round" transform="rotate(-90 600 413)"/><text x="600" y="421" text-anchor="middle" font-size="30" font-weight="800" fill="#e6e8f2" font-family="Arial,sans-serif">68%</text><rect x="20" y="558" width="1160" height="194" rx="12" fill="#24273f"/><circle cx="48" cy="586" r="10" fill="#8b90a7" opacity="0.5"/><rect x="70" y="578" width="146" height="14" rx="7" fill="#e6e8f2" opacity="0.25"/><rect x="1050" y="574" width="106" height="24" rx="12" fill="#a78bfa" opacity="0.18"/><text x="1103" y="591" text-anchor="middle" font-size="12" font-weight="700" fill="#a78bfa" font-family="Arial,sans-serif">Scheduled</text><circle cx="48" cy="630" r="10" fill="#8b90a7" opacity="0.5"/><rect x="70" y="622" width="183" height="14" rx="7" fill="#e6e8f2" opacity="0.25"/><rect x="1050" y="618" width="106" height="24" rx="12" fill="#a78bfa" opacity="0.18"/><text x="1103" y="635" text-anchor="middle" font-size="12" font-weight="700" fill="#a78bfa" font-family="Arial,sans-serif">Checked-in</text><circle cx="48" cy="674" r="10" fill="#8b90a7" opacity="0.5"/><rect x="70" y="666" width="220" height="14" rx="7" fill="#e6e8f2" opacity="0.25"/><rect x="1050" y="662" width="106" height="24" rx="12" fill="#a78bfa" opacity="0.18"/><text x="1103" y="679" text-anchor="middle" font-size="12" font-weight="700" fill="#a78bfa" font-family="Arial,sans-serif">Done</text><text x="20" y="782" font-size="13" fill="#8b90a7" font-family="Arial,sans-serif">d-06 · static mockup · replace with live data per docs/full-stack.md</text></svg>