<svg xmlns="http://www.w3.org/2000/svg" width="1200" height="800" viewBox="0 0 1200 800"><title>d-25 — E-commerce Data Dense dashboard mockup</title><rect width="1200" height="800" fill="#fffbeb"/><rect x="0" y="0" width="216" height="800" fill="#ffffff"/><circle cx="34" cy="38" r="15" fill="#b45309"/><rect x="58" y="30" width="110" height="16" rx="8" fill="#1c1917" opacity="0.8"/><rect x="24" y="84" width="150" height="15" rx="7" fill="#b45309" opacity="0.9"/><rect x="24" y="136" width="110" height="15" rx="7" fill="#a39e93" opacity="0.45"/><rect x="24" y="188" width="110" height="15" rx="7" fill="#a39e93" opacity="0.45"/><rect x="24" y="240" width="110" height="15" rx="7" fill="#a39e93" opacity="0.45"/><rect x="24" y="292" width="110" height="15" rx="7" fill="#a39e93" opacity="0.45"/><rect x="24" y="344" width="110" height="15" rx="7" fill="#a39e93" opacity="0.45"/><text x="228" y="52" font-size="30" font-weight="800" fill="#1c1917" font-family="Arial,sans-serif">E-commerce · Data Dense</text><text x="228" y="76" font-size="15" fill="#a39e93" font-family="Arial,sans-serif">Operations overview · live demo data</text><rect x="228" y="96" width="228" height="104" rx="12" fill="#ffffff"/><text x="244" y="126" font-size="14" fill="#a39e93" font-family="Arial,sans-serif">Orders today</text><text x="244" y="162" font-size="26" font-weight="800" fill="#1c1917" font-family="Arial,sans-serif">1,204</text><rect x="244" y="176" width="107.80000000000001" height="8" rx="4" fill="#b45309" opacity="0.8"/><rect x="472" y="96" width="228" height="104" rx="12" fill="#ffffff"/><text x="488" y="126" font-size="14" fill="#a39e93" font-family="Arial,sans-serif">Conversion</text><text x="488" y="162" font-size="26" font-weight="800" fill="#1c1917" font-family="Arial,sans-serif">3.8%</text><rect x="488" y="176" width="137.2" height="8" rx="4" fill="#b45309" opacity="0.8"/><rect x="716" y="96" width="228" height="104" rx="12" fill="#ffffff"/><text x="732" y="126" font-size="14" fill="#a39e93" font-family="Arial,sans-serif">Returns</text><text x="732" y="162" font-size="26" font-weight="800" fill="#1c1917" font-family="Arial,sans-serif">42</text><rect x="732" y="176" width="166.6" height="8" rx="4" fill="#b45309" opacity="0.8"/><rect x="960" y="96" width="228" height="104" rx="12" fill="#ffffff"/><text x="976" y="126" font-size="14" fill="#a39e93" font-family="Arial,sans-serif">Top category</text><text x="976" y="162" font-size="26" font-weight="800" fill="#1c1917" font-family="Arial,sans-serif">Audio</text><rect x="976" y="176" width="78.4" height="8" rx="4" fill="#b45309" opacity="0.8"/><rect x="228" y="220" width="960" height="250" rx="12" fill="#ffffff"/><rect x="232" y="324" width="129" height="146" rx="4" fill="#b45309" opacity="0.81"/><rect x="369" y="238" width="129" height="232" rx="4" fill="#b45309" opacity="0.97"/><rect x="506" y="362" width="129" height="108" rx="4" fill="#b45309" opacity="0.75"/><rect x="643" y="233" width="129" height="237" rx="4" fill="#b45309" opacity="0.98"/><rect x="781" y="365" width="129" height="105" rx="4" fill="#b45309" opacity="0.74"/><rect x="918" y="237" width="129" height="233" rx="4" fill="#b45309" opacity="0.97"/><rect x="1055" y="327" width="129" height="143" rx="4" fill="#b45309" opacity="0.81"/><rect x="228" y="490" width="960" height="262" rx="12" fill="#ffffff"/><circle cx="256" cy="518" r="10" fill="#a39e93" opacity="0.5"/><rect x="278" y="510" width="165" height="14" rx="7" fill="#1c1917" opacity="0.25"/><rect x="1058" y="506" width="106" height="24" rx="12" fill="#b45309" opacity="0.18"/><text x="1111" y="523" text-anchor="middle" font-size="12" font-weight="700" fill="#b45309" font-family="Arial,sans-serif">Scheduled</text><circle cx="256" cy="562" r="10" fill="#a39e93" opacity="0.5"/><rect x="278" y="554" width="202" height="14" rx="7" fill="#1c1917" opacity="0.25"/><rect x="1058" y="550" width="106" height="24" rx="12" fill="#b45309" opacity="0.18"/><text x="1111" y="567" text-anchor="middle" font-size="12" font-weight="700" fill="#b45309" font-family="Arial,sans-serif">Checked-in</text><circle cx="256" cy="606" r="10" fill="#a39e93" opacity="0.5"/><rect x="278" y="598" width="239" height="14" rx="7" fill="#1c1917" opacity="0.25"/><rect x="1058" y="594" width="106" height="24" rx="12" fill="#b45309" opacity="0.18"/><text x="1111" y="611" text-anchor="middle" font-size="12" font-weight="700" fill="#b45309" font-family="Arial,sans-serif">Done</text><circle cx="256" cy="650" r="10" fill="#a39e93" opacity="0.5"/><rect x="278" y="642" width="156" height="14" rx="7" fill="#1c1917" opacity="0.25"/><rect x="1058" y="638" width="106" height="24" rx="12" fill="#b45309" opacity="0.18"/><text x="1111" y="655" text-anchor="middle" font-size="12" font-weight="700" fill="#b45309" font-family="Arial,sans-serif">Scheduled</text><text x="228" y="782" font-size="13" fill="#a39e93" font-family="Arial,sans-serif">d-25 · static mockup · replace with live data per docs/full-stack.md</text></svg>