<svg xmlns="http://www.w3.org/2000/svg" width="1200" height="800" viewBox="0 0 1200 800"><title>d-34 — Education Minimal dashboard mockup</title><rect width="1200" height="800" fill="#fffbeb"/><rect x="0" y="0" width="1200" height="68" fill="#ffffff"/><circle cx="36" cy="34" r="16" fill="#b45309"/><rect x="120" y="26" width="72" height="16" rx="8" fill="#a39e93" opacity="0.5"/><rect x="220" y="26" width="72" height="16" rx="8" fill="#a39e93" opacity="0.5"/><rect x="320" y="26" width="72" height="16" rx="8" fill="#a39e93" opacity="0.5"/><rect x="420" y="26" width="72" height="16" rx="8" fill="#a39e93" opacity="0.5"/><text x="36" y="120" font-size="30" font-weight="800" fill="#1c1917" font-family="Arial,sans-serif">Education · Minimal</text><text x="36" y="144" font-size="15" fill="#a39e93" font-family="Arial,sans-serif">Operations overview · live demo data</text><rect x="36" y="164" width="270" height="104" rx="12" fill="#ffffff"/><text x="52" y="194" font-size="14" fill="#a39e93" font-family="Arial,sans-serif">Enrolled</text><text x="52" y="230" font-size="26" font-weight="800" fill="#1c1917" font-family="Arial,sans-serif">8,412</text><rect x="52" y="244" width="166.6" height="8" rx="4" fill="#b45309" opacity="0.8"/><rect x="322" y="164" width="270" height="104" rx="12" fill="#ffffff"/><text x="338" y="194" font-size="14" fill="#a39e93" font-family="Arial,sans-serif">Completion</text><text x="338" y="230" font-size="26" font-weight="800" fill="#1c1917" font-family="Arial,sans-serif">78%</text><rect x="338" y="244" width="202.29999999999998" height="8" rx="4" fill="#b45309" opacity="0.8"/><rect x="608" y="164" width="270" height="104" rx="12" fill="#ffffff"/><text x="624" y="194" font-size="14" fill="#a39e93" font-family="Arial,sans-serif">Live classes</text><text x="624" y="230" font-size="26" font-weight="800" fill="#1c1917" font-family="Arial,sans-serif">16</text><rect x="624" y="244" width="95.2" height="8" rx="4" fill="#b45309" opacity="0.8"/><rect x="894" y="164" width="270" height="104" rx="12" fill="#ffffff"/><text x="910" y="194" font-size="14" fill="#a39e93" font-family="Arial,sans-serif">New signups</text><text x="910" y="230" font-size="26" font-weight="800" fill="#1c1917" font-family="Arial,sans-serif">214</text><rect x="910" y="244" width="130.9" height="8" rx="4" fill="#b45309" opacity="0.8"/><rect x="36" y="288" width="1128" height="250" rx="12" fill="#ffffff"/><polyline points="48,460 186,367 324,324 462,378 600,470 738,499 876,434 1014,346 1152,331 " fill="none" stroke="#b45309" stroke-width="4" stroke-linecap="round"/><rect x="36" y="558" width="1128" height="194" rx="12" fill="#ffffff"/><circle cx="64" cy="586" r="10" fill="#a39e93" opacity="0.5"/><rect x="86" y="578" width="174" height="14" rx="7" fill="#1c1917" opacity="0.25"/><rect x="1034" y="574" width="106" height="24" rx="12" fill="#b45309" opacity="0.18"/><text x="1087" y="591" text-anchor="middle" font-size="12" font-weight="700" fill="#b45309" font-family="Arial,sans-serif">Scheduled</text><circle cx="64" cy="630" r="10" fill="#a39e93" opacity="0.5"/><rect x="86" y="622" width="211" height="14" rx="7" fill="#1c1917" opacity="0.25"/><rect x="1034" y="618" width="106" height="24" rx="12" fill="#b45309" opacity="0.18"/><text x="1087" y="635" text-anchor="middle" font-size="12" font-weight="700" fill="#b45309" font-family="Arial,sans-serif">Checked-in</text><circle cx="64" cy="674" r="10" fill="#a39e93" opacity="0.5"/><rect x="86" y="666" width="248" height="14" rx="7" fill="#1c1917" opacity="0.25"/><rect x="1034" y="662" width="106" height="24" rx="12" fill="#b45309" opacity="0.18"/><text x="1087" y="679" text-anchor="middle" font-size="12" font-weight="700" fill="#b45309" font-family="Arial,sans-serif">Done</text><text x="36" y="782" font-size="13" fill="#a39e93" font-family="Arial,sans-serif">d-34 · static mockup · replace with live data per docs/full-stack.md</text></svg>