<svg xmlns="http://www.w3.org/2000/svg" width="1200" height="800" viewBox="0 0 1200 800"><title>d-40 — Education Mono dashboard mockup</title><rect width="1200" height="800" fill="#0f172a"/><rect x="0" y="0" width="76" height="800" fill="#1e293b"/><circle cx="38" cy="40" r="16" fill="#38bdf8"/><rect x="26" y="90" width="24" height="24" rx="7" fill="#38bdf8" opacity="1"/><rect x="26" y="146" width="24" height="24" rx="7" fill="#94a3b8" opacity="0.45"/><rect x="26" y="202" width="24" height="24" rx="7" fill="#94a3b8" opacity="0.45"/><rect x="26" y="258" width="24" height="24" rx="7" fill="#94a3b8" opacity="0.45"/><rect x="26" y="314" width="24" height="24" rx="7" fill="#94a3b8" opacity="0.45"/><text x="96" y="52" font-size="30" font-weight="800" fill="#f1f5f9" font-family="Arial,sans-serif">Education · Mono</text><text x="96" y="76" font-size="15" fill="#94a3b8" font-family="Arial,sans-serif">Operations overview · live demo data</text><rect x="96" y="96" width="259" height="104" rx="12" fill="#1e293b"/><text x="112" y="126" font-size="14" fill="#94a3b8" font-family="Arial,sans-serif">Enrolled</text><text x="112" y="162" font-size="26" font-weight="800" fill="#f1f5f9" font-family="Arial,sans-serif">8,412</text><rect x="112" y="176" width="90.80000000000001" height="8" rx="4" fill="#38bdf8" opacity="0.8"/><rect x="371" y="96" width="259" height="104" rx="12" fill="#1e293b"/><text x="387" y="126" font-size="14" fill="#94a3b8" font-family="Arial,sans-serif">Completion</text><text x="387" y="162" font-size="26" font-weight="800" fill="#f1f5f9" font-family="Arial,sans-serif">78%</text><rect x="387" y="176" width="124.85000000000001" height="8" rx="4" fill="#38bdf8" opacity="0.8"/><rect x="646" y="96" width="259" height="104" rx="12" fill="#1e293b"/><text x="662" y="126" font-size="14" fill="#94a3b8" font-family="Arial,sans-serif">Live classes</text><text x="662" y="162" font-size="26" font-weight="800" fill="#f1f5f9" font-family="Arial,sans-serif">16</text><rect x="662" y="176" width="158.89999999999998" height="8" rx="4" fill="#38bdf8" opacity="0.8"/><rect x="921" y="96" width="259" height="104" rx="12" fill="#1e293b"/><text x="937" y="126" font-size="14" fill="#94a3b8" font-family="Arial,sans-serif">New signups</text><text x="937" y="162" font-size="26" font-weight="800" fill="#f1f5f9" font-family="Arial,sans-serif">214</text><rect x="937" y="176" width="192.95" height="8" rx="4" fill="#38bdf8" opacity="0.8"/><rect x="96" y="220" width="1084" height="250" rx="12" fill="#1e293b"/><rect x="100" y="295" width="147" height="175" rx="4" fill="#38bdf8" opacity="0.86"/><rect x="255" y="273" width="147" height="197" rx="4" fill="#38bdf8" opacity="0.91"/><rect x="410" y="267" width="147" height="203" rx="4" fill="#38bdf8" opacity="0.92"/><rect x="565" y="302" width="147" height="168" rx="4" fill="#38bdf8" opacity="0.85"/><rect x="719" y="246" width="147" height="224" rx="4" fill="#38bdf8" opacity="0.95"/><rect x="874" y="337" width="147" height="133" rx="4" fill="#38bdf8" opacity="0.79"/><rect x="1029" y="235" width="147" height="235" rx="4" fill="#38bdf8" opacity="0.97"/><rect x="96" y="490" width="1084" height="262" rx="12" fill="#1e293b"/><circle cx="124" cy="518" r="10" fill="#94a3b8" opacity="0.5"/><rect x="146" y="510" width="180" height="14" rx="7" fill="#f1f5f9" opacity="0.25"/><rect x="1050" y="506" width="106" height="24" rx="12" fill="#38bdf8" opacity="0.18"/><text x="1103" y="523" text-anchor="middle" font-size="12" font-weight="700" fill="#38bdf8" font-family="Arial,sans-serif">Scheduled</text><circle cx="124" cy="562" r="10" fill="#94a3b8" opacity="0.5"/><rect x="146" y="554" width="217" height="14" rx="7" fill="#f1f5f9" opacity="0.25"/><rect x="1050" y="550" width="106" height="24" rx="12" fill="#38bdf8" opacity="0.18"/><text x="1103" y="567" text-anchor="middle" font-size="12" font-weight="700" fill="#38bdf8" font-family="Arial,sans-serif">Checked-in</text><circle cx="124" cy="606" r="10" fill="#94a3b8" opacity="0.5"/><rect x="146" y="598" width="254" height="14" rx="7" fill="#f1f5f9" opacity="0.25"/><rect x="1050" y="594" width="106" height="24" rx="12" fill="#38bdf8" opacity="0.18"/><text x="1103" y="611" text-anchor="middle" font-size="12" font-weight="700" fill="#38bdf8" font-family="Arial,sans-serif">Done</text><circle cx="124" cy="650" r="10" fill="#94a3b8" opacity="0.5"/><rect x="146" y="642" width="171" height="14" rx="7" fill="#f1f5f9" opacity="0.25"/><rect x="1050" y="638" width="106" height="24" rx="12" fill="#38bdf8" opacity="0.18"/><text x="1103" y="655" text-anchor="middle" font-size="12" font-weight="700" fill="#38bdf8" font-family="Arial,sans-serif">Scheduled</text><text x="96" y="782" font-size="13" fill="#94a3b8" font-family="Arial,sans-serif">d-40 · static mockup · replace with live data per docs/full-stack.md</text></svg>