<svg xmlns="http://www.w3.org/2000/svg" width="1200" height="800" viewBox="0 0 1200 800"><title>d-42 — Logistics Compact Ops dashboard mockup</title><rect width="1200" height="800" fill="#1a1b26"/><rect x="0" y="0" width="76" height="800" fill="#24273f"/><circle cx="38" cy="40" r="16" fill="#a78bfa"/><rect x="26" y="90" width="24" height="24" rx="7" fill="#a78bfa" opacity="1"/><rect x="26" y="146" width="24" height="24" rx="7" fill="#8b90a7" opacity="0.45"/><rect x="26" y="202" width="24" height="24" rx="7" fill="#8b90a7" opacity="0.45"/><rect x="26" y="258" width="24" height="24" rx="7" fill="#8b90a7" opacity="0.45"/><rect x="26" y="314" width="24" height="24" rx="7" fill="#8b90a7" opacity="0.45"/><text x="94" y="52" font-size="30" font-weight="800" fill="#e6e8f2" font-family="Arial,sans-serif">Logistics · Compact Ops</text><text x="94" y="76" font-size="15" fill="#8b90a7" font-family="Arial,sans-serif">Operations overview · live demo data</text><rect x="94" y="96" width="260" height="104" rx="12" fill="#24273f"/><text x="110" y="126" font-size="14" fill="#8b90a7" font-family="Arial,sans-serif">Shipments</text><text x="110" y="162" font-size="26" font-weight="800" fill="#e6e8f2" font-family="Arial,sans-serif">3,907</text><rect x="110" y="176" width="159.6" height="8" rx="4" fill="#a78bfa" opacity="0.8"/><rect x="370" y="96" width="260" height="104" rx="12" fill="#24273f"/><text x="386" y="126" font-size="14" fill="#8b90a7" font-family="Arial,sans-serif">On-time</text><text x="386" y="162" font-size="26" font-weight="800" fill="#e6e8f2" font-family="Arial,sans-serif">94%</text><rect x="386" y="176" width="193.79999999999998" height="8" rx="4" fill="#a78bfa" opacity="0.8"/><rect x="646" y="96" width="260" height="104" rx="12" fill="#24273f"/><text x="662" y="126" font-size="14" fill="#8b90a7" font-family="Arial,sans-serif">Delayed</text><text x="662" y="162" font-size="26" font-weight="800" fill="#e6e8f2" font-family="Arial,sans-serif">61</text><rect x="662" y="176" width="91.2" height="8" rx="4" fill="#a78bfa" opacity="0.8"/><rect x="922" y="96" width="260" height="104" rx="12" fill="#24273f"/><text x="938" y="126" font-size="14" fill="#8b90a7" font-family="Arial,sans-serif">Fleet active</text><text x="938" y="162" font-size="26" font-weight="800" fill="#e6e8f2" font-family="Arial,sans-serif">82%</text><rect x="938" y="176" width="125.4" height="8" rx="4" fill="#a78bfa" opacity="0.8"/><rect x="94" y="220" width="1088" height="250" rx="12" fill="#24273f"/><polyline points="106,264 239,276 372,364 505,431 638,404 771,312 904,257 1037,297 1170,390 " fill="none" stroke="#a78bfa" stroke-width="4" stroke-linecap="round"/><rect x="94" y="490" width="1088" height="262" rx="12" fill="#24273f"/><circle cx="122" cy="518" r="10" fill="#8b90a7" opacity="0.5"/><rect x="144" y="510" width="182" height="14" rx="7" fill="#e6e8f2" opacity="0.25"/><rect x="1052" y="506" width="106" height="24" rx="12" fill="#a78bfa" opacity="0.18"/><text x="1105" y="523" text-anchor="middle" font-size="12" font-weight="700" fill="#a78bfa" font-family="Arial,sans-serif">Scheduled</text><circle cx="122" cy="562" r="10" fill="#8b90a7" opacity="0.5"/><rect x="144" y="554" width="219" height="14" rx="7" fill="#e6e8f2" opacity="0.25"/><rect x="1052" y="550" width="106" height="24" rx="12" fill="#a78bfa" opacity="0.18"/><text x="1105" y="567" text-anchor="middle" font-size="12" font-weight="700" fill="#a78bfa" font-family="Arial,sans-serif">Checked-in</text><circle cx="122" cy="606" r="10" fill="#8b90a7" opacity="0.5"/><rect x="144" y="598" width="256" height="14" rx="7" fill="#e6e8f2" opacity="0.25"/><rect x="1052" y="594" width="106" height="24" rx="12" fill="#a78bfa" opacity="0.18"/><text x="1105" y="611" text-anchor="middle" font-size="12" font-weight="700" fill="#a78bfa" font-family="Arial,sans-serif">Done</text><circle cx="122" cy="650" r="10" fill="#8b90a7" opacity="0.5"/><rect x="144" y="642" width="173" height="14" rx="7" fill="#e6e8f2" opacity="0.25"/><rect x="1052" y="638" width="106" height="24" rx="12" fill="#a78bfa" opacity="0.18"/><text x="1105" y="655" text-anchor="middle" font-size="12" font-weight="700" fill="#a78bfa" font-family="Arial,sans-serif">Scheduled</text><text x="94" y="782" font-size="13" fill="#8b90a7" font-family="Arial,sans-serif">d-42 · static mockup · replace with live data per docs/full-stack.md</text></svg>