<svg xmlns="http://www.w3.org/2000/svg" width="1200" height="800" viewBox="0 0 1200 800"><title>d-51 — Real Estate Executive dashboard mockup</title><rect width="1200" height="800" fill="#1a1b26"/><rect x="0" y="0" width="216" height="800" fill="#24273f"/><circle cx="34" cy="38" r="15" fill="#a78bfa"/><rect x="58" y="30" width="110" height="16" rx="8" fill="#e6e8f2" opacity="0.8"/><rect x="24" y="84" width="150" height="15" rx="7" fill="#a78bfa" opacity="0.9"/><rect x="24" y="136" width="110" height="15" rx="7" fill="#8b90a7" opacity="0.45"/><rect x="24" y="188" width="110" height="15" rx="7" fill="#8b90a7" opacity="0.45"/><rect x="24" y="240" width="110" height="15" rx="7" fill="#8b90a7" opacity="0.45"/><rect x="24" y="292" width="110" height="15" rx="7" fill="#8b90a7" opacity="0.45"/><rect x="24" y="344" width="110" height="15" rx="7" fill="#8b90a7" opacity="0.45"/><text x="244" y="52" font-size="30" font-weight="800" fill="#e6e8f2" font-family="Arial,sans-serif">Real Estate · Executive</text><text x="244" y="76" font-size="15" fill="#8b90a7" font-family="Arial,sans-serif">Operations overview · live demo data</text><rect x="244" y="96" width="220" height="104" rx="12" fill="#24273f"/><text x="260" y="126" font-size="14" fill="#8b90a7" font-family="Arial,sans-serif">Listings</text><text x="260" y="162" font-size="26" font-weight="800" fill="#e6e8f2" font-family="Arial,sans-serif">1,562</text><rect x="260" y="176" width="159.79999999999998" height="8" rx="4" fill="#a78bfa" opacity="0.8"/><rect x="480" y="96" width="220" height="104" rx="12" fill="#24273f"/><text x="496" y="126" font-size="14" fill="#8b90a7" font-family="Arial,sans-serif">Viewings</text><text x="496" y="162" font-size="26" font-weight="800" fill="#e6e8f2" font-family="Arial,sans-serif">389</text><rect x="496" y="176" width="75.2" height="8" rx="4" fill="#a78bfa" opacity="0.8"/><rect x="716" y="96" width="220" height="104" rx="12" fill="#24273f"/><text x="732" y="126" font-size="14" fill="#8b90a7" font-family="Arial,sans-serif">Closed deals</text><text x="732" y="162" font-size="26" font-weight="800" fill="#e6e8f2" font-family="Arial,sans-serif">48</text><rect x="732" y="176" width="103.4" height="8" rx="4" fill="#a78bfa" opacity="0.8"/><rect x="952" y="96" width="220" height="104" rx="12" fill="#24273f"/><text x="968" y="126" font-size="14" fill="#8b90a7" font-family="Arial,sans-serif">Avg price</text><text x="968" y="162" font-size="26" font-weight="800" fill="#e6e8f2" font-family="Arial,sans-serif">$310K</text><rect x="968" y="176" width="131.6" height="8" rx="4" fill="#a78bfa" opacity="0.8"/><rect x="244" y="220" width="928" height="250" rx="12" fill="#24273f"/><rect x="248" y="262" width="125" height="208" rx="4" fill="#a78bfa" opacity="0.93"/><rect x="381" y="279" width="125" height="191" rx="4" fill="#a78bfa" opacity="0.89"/><rect x="513" y="288" width="125" height="182" rx="4" fill="#a78bfa" opacity="0.88"/><rect x="646" y="255" width="125" height="215" rx="4" fill="#a78bfa" opacity="0.94"/><rect x="778" y="321" width="125" height="149" rx="4" fill="#a78bfa" opacity="0.82"/><rect x="911" y="239" width="125" height="231" rx="4" fill="#a78bfa" opacity="0.97"/><rect x="1043" y="358" width="125" height="112" rx="4" fill="#a78bfa" opacity="0.75"/><rect x="244" y="490" width="928" height="262" rx="12" fill="#24273f"/><circle cx="272" cy="518" r="10" fill="#8b90a7" opacity="0.5"/><rect x="294" y="510" width="191" height="14" rx="7" fill="#e6e8f2" opacity="0.25"/><rect x="1042" y="506" width="106" height="24" rx="12" fill="#a78bfa" opacity="0.18"/><text x="1095" y="523" text-anchor="middle" font-size="12" font-weight="700" fill="#a78bfa" font-family="Arial,sans-serif">Scheduled</text><circle cx="272" cy="562" r="10" fill="#8b90a7" opacity="0.5"/><rect x="294" y="554" width="228" height="14" rx="7" fill="#e6e8f2" opacity="0.25"/><rect x="1042" y="550" width="106" height="24" rx="12" fill="#a78bfa" opacity="0.18"/><text x="1095" y="567" text-anchor="middle" font-size="12" font-weight="700" fill="#a78bfa" font-family="Arial,sans-serif">Checked-in</text><circle cx="272" cy="606" r="10" fill="#8b90a7" opacity="0.5"/><rect x="294" y="598" width="145" height="14" rx="7" fill="#e6e8f2" opacity="0.25"/><rect x="1042" y="594" width="106" height="24" rx="12" fill="#a78bfa" opacity="0.18"/><text x="1095" y="611" text-anchor="middle" font-size="12" font-weight="700" fill="#a78bfa" font-family="Arial,sans-serif">Done</text><circle cx="272" cy="650" r="10" fill="#8b90a7" opacity="0.5"/><rect x="294" y="642" width="182" height="14" rx="7" fill="#e6e8f2" opacity="0.25"/><rect x="1042" y="638" width="106" height="24" rx="12" fill="#a78bfa" opacity="0.18"/><text x="1095" y="655" text-anchor="middle" font-size="12" font-weight="700" fill="#a78bfa" font-family="Arial,sans-serif">Scheduled</text><text x="244" y="782" font-size="13" fill="#8b90a7" font-family="Arial,sans-serif">d-51 · static mockup · replace with live data per docs/full-stack.md</text></svg>