<svg xmlns="http://www.w3.org/2000/svg" width="1200" height="800" viewBox="0 0 1200 800"><title>d-55 — Real Estate Data Dense dashboard mockup</title><rect width="1200" height="800" fill="#0f172a"/><rect x="0" y="0" width="216" height="800" fill="#1e293b"/><circle cx="34" cy="38" r="15" fill="#38bdf8"/><rect x="58" y="30" width="110" height="16" rx="8" fill="#f1f5f9" opacity="0.8"/><rect x="24" y="84" width="150" height="15" rx="7" fill="#38bdf8" opacity="0.9"/><rect x="24" y="136" width="110" height="15" rx="7" fill="#94a3b8" opacity="0.45"/><rect x="24" y="188" width="110" height="15" rx="7" fill="#94a3b8" opacity="0.45"/><rect x="24" y="240" width="110" height="15" rx="7" fill="#94a3b8" opacity="0.45"/><rect x="24" y="292" width="110" height="15" rx="7" fill="#94a3b8" opacity="0.45"/><rect x="24" y="344" width="110" height="15" rx="7" fill="#94a3b8" opacity="0.45"/><text x="228" y="52" font-size="30" font-weight="800" fill="#f1f5f9" font-family="Arial,sans-serif">Real Estate · Data Dense</text><text x="228" y="76" font-size="15" fill="#94a3b8" font-family="Arial,sans-serif">Operations overview · live demo data</text><rect x="228" y="96" width="228" height="104" rx="12" fill="#1e293b"/><text x="244" y="126" font-size="14" fill="#94a3b8" font-family="Arial,sans-serif">Listings</text><text x="244" y="162" font-size="26" font-weight="800" fill="#f1f5f9" font-family="Arial,sans-serif">1,562</text><rect x="244" y="176" width="166.6" height="8" rx="4" fill="#38bdf8" opacity="0.8"/><rect x="472" y="96" width="228" height="104" rx="12" fill="#1e293b"/><text x="488" y="126" font-size="14" fill="#94a3b8" font-family="Arial,sans-serif">Viewings</text><text x="488" y="162" font-size="26" font-weight="800" fill="#f1f5f9" font-family="Arial,sans-serif">389</text><rect x="488" y="176" width="78.4" height="8" rx="4" fill="#38bdf8" opacity="0.8"/><rect x="716" y="96" width="228" height="104" rx="12" fill="#1e293b"/><text x="732" y="126" font-size="14" fill="#94a3b8" font-family="Arial,sans-serif">Closed deals</text><text x="732" y="162" font-size="26" font-weight="800" fill="#f1f5f9" font-family="Arial,sans-serif">48</text><rect x="732" y="176" width="107.80000000000001" height="8" rx="4" fill="#38bdf8" opacity="0.8"/><rect x="960" y="96" width="228" height="104" rx="12" fill="#1e293b"/><text x="976" y="126" font-size="14" fill="#94a3b8" font-family="Arial,sans-serif">Avg price</text><text x="976" y="162" font-size="26" font-weight="800" fill="#f1f5f9" font-family="Arial,sans-serif">$310K</text><rect x="976" y="176" width="137.2" height="8" rx="4" fill="#38bdf8" opacity="0.8"/><rect x="228" y="220" width="960" height="250" rx="12" fill="#1e293b"/><rect x="232" y="233" width="129" height="237" rx="4" fill="#38bdf8" opacity="0.98"/><rect x="369" y="353" width="129" height="117" rx="4" fill="#38bdf8" opacity="0.76"/><rect x="506" y="240" width="129" height="230" rx="4" fill="#38bdf8" opacity="0.96"/><rect x="643" y="317" width="129" height="153" rx="4" fill="#38bdf8" opacity="0.83"/><rect x="781" y="257" width="129" height="213" rx="4" fill="#38bdf8" opacity="0.93"/><rect x="918" y="284" width="129" height="186" rx="4" fill="#38bdf8" opacity="0.88"/><rect x="1055" y="283" width="129" height="187" rx="4" fill="#38bdf8" opacity="0.89"/><rect x="228" y="490" width="960" height="262" rx="12" fill="#1e293b"/><circle cx="256" cy="518" r="10" fill="#94a3b8" opacity="0.5"/><rect x="278" y="510" width="195" height="14" rx="7" fill="#f1f5f9" opacity="0.25"/><rect x="1058" y="506" width="106" height="24" rx="12" fill="#38bdf8" opacity="0.18"/><text x="1111" y="523" text-anchor="middle" font-size="12" font-weight="700" fill="#38bdf8" font-family="Arial,sans-serif">Scheduled</text><circle cx="256" cy="562" r="10" fill="#94a3b8" opacity="0.5"/><rect x="278" y="554" width="232" height="14" rx="7" fill="#f1f5f9" opacity="0.25"/><rect x="1058" y="550" width="106" height="24" rx="12" fill="#38bdf8" opacity="0.18"/><text x="1111" y="567" text-anchor="middle" font-size="12" font-weight="700" fill="#38bdf8" font-family="Arial,sans-serif">Checked-in</text><circle cx="256" cy="606" r="10" fill="#94a3b8" opacity="0.5"/><rect x="278" y="598" width="149" height="14" rx="7" fill="#f1f5f9" opacity="0.25"/><rect x="1058" y="594" width="106" height="24" rx="12" fill="#38bdf8" opacity="0.18"/><text x="1111" y="611" text-anchor="middle" font-size="12" font-weight="700" fill="#38bdf8" font-family="Arial,sans-serif">Done</text><circle cx="256" cy="650" r="10" fill="#94a3b8" opacity="0.5"/><rect x="278" y="642" width="186" height="14" rx="7" fill="#f1f5f9" opacity="0.25"/><rect x="1058" y="638" width="106" height="24" rx="12" fill="#38bdf8" opacity="0.18"/><text x="1111" y="655" text-anchor="middle" font-size="12" font-weight="700" fill="#38bdf8" font-family="Arial,sans-serif">Scheduled</text><text x="228" y="782" font-size="13" fill="#94a3b8" font-family="Arial,sans-serif">d-55 · static mockup · replace with live data per docs/full-stack.md</text></svg>