<svg xmlns="http://www.w3.org/2000/svg" width="1200" height="800" viewBox="0 0 1200 800"><title>d-67 — SaaS Analytics Timeline dashboard mockup</title><rect width="1200" height="800" fill="#fdf2f8"/><rect x="0" y="0" width="76" height="800" fill="#ffffff"/><circle cx="38" cy="40" r="16" fill="#be185d"/><rect x="26" y="90" width="24" height="24" rx="7" fill="#be185d" opacity="1"/><rect x="26" y="146" width="24" height="24" rx="7" fill="#a89bb0" opacity="0.45"/><rect x="26" y="202" width="24" height="24" rx="7" fill="#a89bb0" opacity="0.45"/><rect x="26" y="258" width="24" height="24" rx="7" fill="#a89bb0" opacity="0.45"/><rect x="26" y="314" width="24" height="24" rx="7" fill="#a89bb0" opacity="0.45"/><text x="98" y="52" font-size="30" font-weight="800" fill="#1f1b24" font-family="Arial,sans-serif">SaaS Analytics · Timeline</text><text x="98" y="76" font-size="15" fill="#a89bb0" font-family="Arial,sans-serif">Operations overview · live demo data</text><rect x="98" y="96" width="258" height="104" rx="12" fill="#ffffff"/><text x="114" y="126" font-size="14" fill="#a89bb0" font-family="Arial,sans-serif">MRR</text><text x="114" y="162" font-size="26" font-weight="800" fill="#1f1b24" font-family="Arial,sans-serif">$96K</text><rect x="114" y="176" width="192.1" height="8" rx="4" fill="#be185d" opacity="0.8"/><rect x="372" y="96" width="258" height="104" rx="12" fill="#ffffff"/><text x="388" y="126" font-size="14" fill="#a89bb0" font-family="Arial,sans-serif">Churn</text><text x="388" y="162" font-size="26" font-weight="800" fill="#1f1b24" font-family="Arial,sans-serif">1.9%</text><rect x="388" y="176" width="90.4" height="8" rx="4" fill="#be185d" opacity="0.8"/><rect x="646" y="96" width="258" height="104" rx="12" fill="#ffffff"/><text x="662" y="126" font-size="14" fill="#a89bb0" font-family="Arial,sans-serif">NPS</text><text x="662" y="162" font-size="26" font-weight="800" fill="#1f1b24" font-family="Arial,sans-serif">62</text><rect x="662" y="176" width="124.30000000000001" height="8" rx="4" fill="#be185d" opacity="0.8"/><rect x="920" y="96" width="258" height="104" rx="12" fill="#ffffff"/><text x="936" y="126" font-size="14" fill="#a89bb0" font-family="Arial,sans-serif">Uptime</text><text x="936" y="162" font-size="26" font-weight="800" fill="#1f1b24" font-family="Arial,sans-serif">99.98%</text><rect x="936" y="176" width="158.2" height="8" rx="4" fill="#be185d" opacity="0.8"/><rect x="98" y="220" width="1080" height="250" rx="12" fill="#ffffff"/><polyline points="110,269 242,270 374,353 506,427 638,412 770,324 902,258 1034,288 1166,380 " fill="none" stroke="#be185d" stroke-width="4" stroke-linecap="round"/><rect x="98" y="490" width="1080" height="262" rx="12" fill="#ffffff"/><circle cx="126" cy="518" r="10" fill="#a89bb0" opacity="0.5"/><rect x="148" y="510" width="207" height="14" rx="7" fill="#1f1b24" opacity="0.25"/><rect x="1048" y="506" width="106" height="24" rx="12" fill="#be185d" opacity="0.18"/><text x="1101" y="523" text-anchor="middle" font-size="12" font-weight="700" fill="#be185d" font-family="Arial,sans-serif">Scheduled</text><circle cx="126" cy="562" r="10" fill="#a89bb0" opacity="0.5"/><rect x="148" y="554" width="244" height="14" rx="7" fill="#1f1b24" opacity="0.25"/><rect x="1048" y="550" width="106" height="24" rx="12" fill="#be185d" opacity="0.18"/><text x="1101" y="567" text-anchor="middle" font-size="12" font-weight="700" fill="#be185d" font-family="Arial,sans-serif">Checked-in</text><circle cx="126" cy="606" r="10" fill="#a89bb0" opacity="0.5"/><rect x="148" y="598" width="161" height="14" rx="7" fill="#1f1b24" opacity="0.25"/><rect x="1048" y="594" width="106" height="24" rx="12" fill="#be185d" opacity="0.18"/><text x="1101" y="611" text-anchor="middle" font-size="12" font-weight="700" fill="#be185d" font-family="Arial,sans-serif">Done</text><circle cx="126" cy="650" r="10" fill="#a89bb0" opacity="0.5"/><rect x="148" y="642" width="198" height="14" rx="7" fill="#1f1b24" opacity="0.25"/><rect x="1048" y="638" width="106" height="24" rx="12" fill="#be185d" opacity="0.18"/><text x="1101" y="655" text-anchor="middle" font-size="12" font-weight="700" fill="#be185d" font-family="Arial,sans-serif">Scheduled</text><text x="98" y="782" font-size="13" fill="#a89bb0" font-family="Arial,sans-serif">d-67 · static mockup · replace with live data per docs/full-stack.md</text></svg>