<svg xmlns="http://www.w3.org/2000/svg" width="1200" height="800" viewBox="0 0 1200 800"><title>g-35 Retro Arcade cover mockup</title><rect width="1200" height="800" fill="#1c0a1e"/><circle cx="412" cy="274" r="2.1" fill="#f472b6" opacity="0.7"/><circle cx="122" cy="191" r="1.2" fill="#f472b6" opacity="0.7"/><circle cx="1058" cy="609" r="3.1" fill="#f472b6" opacity="0.7"/><circle cx="227" cy="60" r="2.6" fill="#f472b6" opacity="0.7"/><circle cx="732" cy="83" r="2.7" fill="#f472b6" opacity="0.7"/><circle cx="998" cy="507" r="2.4" fill="#f472b6" opacity="0.7"/><circle cx="1142" cy="499" r="3.5" fill="#f472b6" opacity="0.7"/><circle cx="430" cy="277" r="1.6" fill="#f472b6" opacity="0.7"/><circle cx="366" cy="184" r="2.1" fill="#f472b6" opacity="0.7"/><circle cx="560" cy="100" r="2.5" fill="#f472b6" opacity="0.7"/><circle cx="176" cy="733" r="3.5" fill="#f472b6" opacity="0.7"/><circle cx="181" cy="43" r="1.1" fill="#f472b6" opacity="0.7"/><circle cx="1099" cy="160" r="1.2" fill="#f472b6" opacity="0.7"/><circle cx="605" cy="346" r="1.2" fill="#f472b6" opacity="0.7"/><circle cx="975" cy="96" r="1.6" fill="#f472b6" opacity="0.7"/><circle cx="766" cy="465" r="1.5" fill="#f472b6" opacity="0.7"/><circle cx="426" cy="98" r="1.2" fill="#f472b6" opacity="0.7"/><circle cx="169" cy="382" r="2.9" fill="#f472b6" opacity="0.7"/><circle cx="768" cy="766" r="2.8" fill="#f472b6" opacity="0.7"/><circle cx="708" cy="743" r="3.2" fill="#f472b6" opacity="0.7"/><circle cx="362" cy="71" r="3.4" fill="#f472b6" opacity="0.7"/><circle cx="1013" cy="596" r="1.5" fill="#f472b6" opacity="0.7"/><circle cx="833" cy="242" r="3.1" fill="#f472b6" opacity="0.7"/><circle cx="693" cy="605" r="3.4" fill="#f472b6" opacity="0.7"/><circle cx="298" cy="309" r="3.2" fill="#f472b6" opacity="0.7"/><circle cx="1082" cy="126" r="2.9" fill="#f472b6" opacity="0.7"/><circle cx="145" cy="33" r="3.3" fill="#f472b6" opacity="0.7"/><circle cx="648" cy="744" r="3.4" fill="#f472b6" opacity="0.7"/><circle cx="204" cy="427" r="2.6" fill="#f472b6" opacity="0.7"/><circle cx="209" cy="378" r="3.1" fill="#f472b6" opacity="0.7"/><circle cx="682" cy="549" r="1.2" fill="#f472b6" opacity="0.7"/><circle cx="574" cy="25" r="3.1" fill="#f472b6" opacity="0.7"/><circle cx="190" cy="218" r="2.4" fill="#f472b6" opacity="0.7"/><circle cx="206" cy="470" r="3.3" fill="#f472b6" opacity="0.7"/><circle cx="343" cy="133" r="1.1" fill="#f472b6" opacity="0.7"/><circle cx="295" cy="80" r="3.2" fill="#f472b6" opacity="0.7"/><circle cx="920" cy="665" r="3.2" fill="#f472b6" opacity="0.7"/><circle cx="505" cy="288" r="3.2" fill="#f472b6" opacity="0.7"/><circle cx="292" cy="153" r="1.1" fill="#f472b6" opacity="0.7"/><circle cx="802" cy="85" r="1.6" fill="#f472b6" opacity="0.7"/><rect x="50" y="50" width="1100" height="700" fill="none" stroke="#f472b6" stroke-width="4"/><text x="90" y="130" font-size="30" font-weight="700" letter-spacing="8" fill="#f472b6" font-family="Arial,Helvetica,sans-serif">8-BIT</text><text x="90" y="330" font-size="110" font-weight="800" fill="#f5f5f5" font-family="Arial,Helvetica,sans-serif">RETRO ARCADE</text><text x="94" y="390" font-size="30" fill="#f5f5f5" opacity="0.75" font-family="Arial,Helvetica,sans-serif">Edition 05 · press start</text><rect x="90" y="440" width="420" height="26" rx="13" fill="#f5f5f5" opacity="0.2"/><rect x="90" y="440" width="379" height="26" rx="13" fill="#f472b6"/><rect x="90" y="500" width="170" height="60" rx="10" fill="#f5f5f5" opacity="0.12"/><text x="100" y="538" font-size="24" font-weight="700" fill="#f472b6" font-family="Arial,Helvetica,sans-serif">HP</text><rect x="290" y="500" width="170" height="60" rx="10" fill="#f5f5f5" opacity="0.12"/><text x="300" y="538" font-size="24" font-weight="700" fill="#f472b6" font-family="Arial,Helvetica,sans-serif">SCORE 99990</text><rect x="490" y="500" width="170" height="60" rx="10" fill="#f5f5f5" opacity="0.12"/><text x="500" y="538" font-size="24" font-weight="700" fill="#f472b6" font-family="Arial,Helvetica,sans-serif">LV 12</text><circle cx="1030" cy="200" r="64" fill="none" stroke="#f472b6" stroke-width="6"/><text x="1030" y="216" text-anchor="middle" font-size="44" font-weight="800" fill="#f472b6" font-family="Arial,Helvetica,sans-serif">5.9</text><text x="90" y="720" font-size="22" fill="#f5f5f5" opacity="0.7" font-family="Arial,Helvetica,sans-serif">g-35 · game cover mockup</text></svg>