<svg xmlns="http://www.w3.org/2000/svg" width="1000" height="1000" viewBox="0 0 1000 1000"><title>a-21 Halftone art mockup</title><rect width="1000" height="1000" fill="#0f172a"/><circle cx="60" cy="60" r="4" fill="#f472b6" opacity="0.9"/><circle cx="138" cy="60" r="12" fill="#38bdf8" opacity="0.9"/><circle cx="216" cy="60" r="18" fill="#facc15" opacity="0.9"/><circle cx="294" cy="60" r="23" fill="#f472b6" opacity="0.9"/><circle cx="372" cy="60" r="24" fill="#38bdf8" opacity="0.9"/><circle cx="450" cy="60" r="22" fill="#facc15" opacity="0.9"/><circle cx="528" cy="60" r="18" fill="#f472b6" opacity="0.9"/><circle cx="606" cy="60" r="11" fill="#38bdf8" opacity="0.9"/><circle cx="684" cy="60" r="5" fill="#facc15" opacity="0.9"/><circle cx="762" cy="60" r="13" fill="#f472b6" opacity="0.9"/><circle cx="840" cy="60" r="19" fill="#38bdf8" opacity="0.9"/><circle cx="918" cy="60" r="23" fill="#facc15" opacity="0.9"/><circle cx="60" cy="130" r="17" fill="#38bdf8" opacity="0.9"/><circle cx="138" cy="130" r="22" fill="#facc15" opacity="0.9"/><circle cx="216" cy="130" r="24" fill="#f472b6" opacity="0.9"/><circle cx="294" cy="130" r="23" fill="#38bdf8" opacity="0.9"/><circle cx="372" cy="130" r="19" fill="#facc15" opacity="0.9"/><circle cx="450" cy="130" r="13" fill="#f472b6" opacity="0.9"/><circle cx="528" cy="130" r="5" fill="#38bdf8" opacity="0.9"/><circle cx="606" cy="130" r="11" fill="#facc15" opacity="0.9"/><circle cx="684" cy="130" r="18" fill="#f472b6" opacity="0.9"/><circle cx="762" cy="130" r="22" fill="#38bdf8" opacity="0.9"/><circle cx="840" cy="130" r="24" fill="#facc15" opacity="0.9"/><circle cx="918" cy="130" r="23" fill="#f472b6" opacity="0.9"/><circle cx="60" cy="200" r="24" fill="#facc15" opacity="0.9"/><circle cx="138" cy="200" r="23" fill="#f472b6" opacity="0.9"/><circle cx="216" cy="200" r="20" fill="#38bdf8" opacity="0.9"/><circle cx="294" cy="200" r="14" fill="#facc15" opacity="0.9"/><circle cx="372" cy="200" r="7" fill="#f472b6" opacity="0.9"/><circle cx="450" cy="200" r="9" fill="#38bdf8" opacity="0.9"/><circle cx="528" cy="200" r="16" fill="#facc15" opacity="0.9"/><circle cx="606" cy="200" r="21" fill="#f472b6" opacity="0.9"/><circle cx="684" cy="200" r="24" fill="#38bdf8" opacity="0.9"/><circle cx="762" cy="200" r="23" fill="#facc15" opacity="0.9"/><circle cx="840" cy="200" r="19" fill="#f472b6" opacity="0.9"/><circle cx="918" cy="200" r="13" fill="#38bdf8" opacity="0.9"/><circle cx="60" cy="270" r="21" fill="#f472b6" opacity="0.9"/><circle cx="138" cy="270" r="16" fill="#38bdf8" opacity="0.9"/><circle cx="216" cy="270" r="9" fill="#facc15" opacity="0.9"/><circle cx="294" cy="270" r="7" fill="#f472b6" opacity="0.9"/><circle cx="372" cy="270" r="15" fill="#38bdf8" opacity="0.9"/><circle cx="450" cy="270" r="20" fill="#facc15" opacity="0.9"/><circle cx="528" cy="270" r="24" fill="#f472b6" opacity="0.9"/><circle cx="606" cy="270" r="24" fill="#38bdf8" opacity="0.9"/><circle cx="684" cy="270" r="21" fill="#facc15" opacity="0.9"/><circle cx="762" cy="270" r="15" fill="#f472b6" opacity="0.9"/><circle cx="840" cy="270" r="8" fill="#38bdf8" opacity="0.9"/><circle cx="918" cy="270" r="8" fill="#facc15" opacity="0.9"/><circle cx="60" cy="340" r="11" fill="#38bdf8" opacity="0.9"/><circle cx="138" cy="340" r="5" fill="#facc15" opacity="0.9"/><circle cx="216" cy="340" r="13" fill="#f472b6" opacity="0.9"/><circle cx="294" cy="340" r="19" fill="#38bdf8" opacity="0.9"/><circle cx="372" cy="340" r="23" fill="#facc15" opacity="0.9"/><circle cx="450" cy="340" r="24" fill="#f472b6" opacity="0.9"/><circle cx="528" cy="340" r="22" fill="#38bdf8" opacity="0.9"/><circle cx="606" cy="340" r="17" fill="#facc15" opacity="0.9"/><circle cx="684" cy="340" r="10" fill="#f472b6" opacity="0.9"/><circle cx="762" cy="340" r="6" fill="#38bdf8" opacity="0.9"/><circle cx="840" cy="340" r="14" fill="#facc15" opacity="0.9"/><circle cx="918" cy="340" r="20" fill="#f472b6" opacity="0.9"/><circle cx="60" cy="410" r="11" fill="#facc15" opacity="0.9"/><circle cx="138" cy="410" r="18" fill="#f472b6" opacity="0.9"/><circle cx="216" cy="410" r="22" fill="#38bdf8" opacity="0.9"/><circle cx="294" cy="410" r="24" fill="#facc15" opacity="0.9"/><circle cx="372" cy="410" r="23" fill="#f472b6" opacity="0.9"/><circle cx="450" cy="410" r="18" fill="#38bdf8" opacity="0.9"/><circle cx="528" cy="410" r="11" fill="#facc15" opacity="0.9"/><circle cx="606" cy="410" r="4" fill="#f472b6" opacity="0.9"/><circle cx="684" cy="410" r="12" fill="#38bdf8" opacity="0.9"/><circle cx="762" cy="410" r="19" fill="#facc15" opacity="0.9"/><circle cx="840" cy="410" r="23" fill="#f472b6" opacity="0.9"/><circle cx="918" cy="410" r="24" fill="#38bdf8" opacity="0.9"/><circle cx="60" cy="480" r="21" fill="#f472b6" opacity="0.9"/><circle cx="138" cy="480" r="24" fill="#38bdf8" opacity="0.9"/><circle cx="216" cy="480" r="23" fill="#facc15" opacity="0.9"/><circle cx="294" cy="480" r="19" fill="#f472b6" opacity="0.9"/><circle cx="372" cy="480" r="13" fill="#38bdf8" opacity="0.9"/><circle cx="450" cy="480" r="6" fill="#facc15" opacity="0.9"/><circle cx="528" cy="480" r="10" fill="#f472b6" opacity="0.9"/><circle cx="606" cy="480" r="17" fill="#38bdf8" opacity="0.9"/><circle cx="684" cy="480" r="22" fill="#facc15" opacity="0.9"/><circle cx="762" cy="480" r="24" fill="#f472b6" opacity="0.9"/><circle cx="840" cy="480" r="23" fill="#38bdf8" opacity="0.9"/><circle cx="918" cy="480" r="19" fill="#facc15" opacity="0.9"/><circle cx="60" cy="550" r="24" fill="#38bdf8" opacity="0.9"/><circle cx="138" cy="550" r="21" fill="#facc15" opacity="0.9"/><circle cx="216" cy="550" r="15" fill="#f472b6" opacity="0.9"/><circle cx="294" cy="550" r="8" fill="#38bdf8" opacity="0.9"/><circle cx="372" cy="550" r="8" fill="#facc15" opacity="0.9"/><circle cx="450" cy="550" r="16" fill="#f472b6" opacity="0.9"/><circle cx="528" cy="550" r="21" fill="#38bdf8" opacity="0.9"/><circle cx="606" cy="550" r="24" fill="#facc15" opacity="0.9"/><circle cx="684" cy="550" r="23" fill="#f472b6" opacity="0.9"/><circle cx="762" cy="550" r="20" fill="#38bdf8" opacity="0.9"/><circle cx="840" cy="550" r="14" fill="#facc15" opacity="0.9"/><circle cx="918" cy="550" r="6" fill="#f472b6" opacity="0.9"/><circle cx="60" cy="620" r="17" fill="#facc15" opacity="0.9"/><circle cx="138" cy="620" r="10" fill="#f472b6" opacity="0.9"/><circle cx="216" cy="620" r="6" fill="#38bdf8" opacity="0.9"/><circle cx="294" cy="620" r="14" fill="#facc15" opacity="0.9"/><circle cx="372" cy="620" r="20" fill="#f472b6" opacity="0.9"/><circle cx="450" cy="620" r="23" fill="#38bdf8" opacity="0.9"/><circle cx="528" cy="620" r="24" fill="#facc15" opacity="0.9"/><circle cx="606" cy="620" r="21" fill="#f472b6" opacity="0.9"/><circle cx="684" cy="620" r="16" fill="#38bdf8" opacity="0.9"/><circle cx="762" cy="620" r="8" fill="#facc15" opacity="0.9"/><circle cx="840" cy="620" r="7" fill="#f472b6" opacity="0.9"/><circle cx="918" cy="620" r="15" fill="#38bdf8" opacity="0.9"/><circle cx="60" cy="690" r="4" fill="#f472b6" opacity="0.9"/><circle cx="138" cy="690" r="12" fill="#38bdf8" opacity="0.9"/><circle cx="216" cy="690" r="19" fill="#facc15" opacity="0.9"/><circle cx="294" cy="690" r="23" fill="#f472b6" opacity="0.9"/><circle cx="372" cy="690" r="24" fill="#38bdf8" opacity="0.9"/><circle cx="450" cy="690" r="22" fill="#facc15" opacity="0.9"/><circle cx="528" cy="690" r="17" fill="#f472b6" opacity="0.9"/><circle cx="606" cy="690" r="10" fill="#38bdf8" opacity="0.9"/><circle cx="684" cy="690" r="6" fill="#facc15" opacity="0.9"/><circle cx="762" cy="690" r="13" fill="#f472b6" opacity="0.9"/><circle cx="840" cy="690" r="19" fill="#38bdf8" opacity="0.9"/><circle cx="918" cy="690" r="23" fill="#facc15" opacity="0.9"/><circle cx="60" cy="760" r="17" fill="#38bdf8" opacity="0.9"/><circle cx="138" cy="760" r="22" fill="#facc15" opacity="0.9"/><circle cx="216" cy="760" r="24" fill="#f472b6" opacity="0.9"/><circle cx="294" cy="760" r="23" fill="#38bdf8" opacity="0.9"/><circle cx="372" cy="760" r="19" fill="#facc15" opacity="0.9"/><circle cx="450" cy="760" r="12" fill="#f472b6" opacity="0.9"/><circle cx="528" cy="760" r="4" fill="#38bdf8" opacity="0.9"/><circle cx="606" cy="760" r="11" fill="#facc15" opacity="0.9"/><circle cx="684" cy="760" r="18" fill="#f472b6" opacity="0.9"/><circle cx="762" cy="760" r="22" fill="#38bdf8" opacity="0.9"/><circle cx="840" cy="760" r="24" fill="#facc15" opacity="0.9"/><circle cx="918" cy="760" r="22" fill="#f472b6" opacity="0.9"/><circle cx="60" cy="830" r="24" fill="#facc15" opacity="0.9"/><circle cx="138" cy="830" r="23" fill="#f472b6" opacity="0.9"/><circle cx="216" cy="830" r="20" fill="#38bdf8" opacity="0.9"/><circle cx="294" cy="830" r="14" fill="#facc15" opacity="0.9"/><circle cx="372" cy="830" r="6" fill="#f472b6" opacity="0.9"/><circle cx="450" cy="830" r="9" fill="#38bdf8" opacity="0.9"/><circle cx="528" cy="830" r="17" fill="#facc15" opacity="0.9"/><circle cx="606" cy="830" r="22" fill="#f472b6" opacity="0.9"/><circle cx="684" cy="830" r="24" fill="#38bdf8" opacity="0.9"/><circle cx="762" cy="830" r="23" fill="#facc15" opacity="0.9"/><circle cx="840" cy="830" r="19" fill="#f472b6" opacity="0.9"/><circle cx="918" cy="830" r="13" fill="#38bdf8" opacity="0.9"/><rect x="0" y="830" width="1000" height="170" fill="#0f172a" opacity="0.85"/><text x="60" y="905" font-size="44" font-weight="800" fill="#ffffff" font-family="Arial,Helvetica,sans-serif">Halftone</text><text x="60" y="955" font-size="26" fill="#ffffff" opacity="0.8" font-family="Arial,Helvetica,sans-serif">a-21 · generative art mockup</text></svg>