<svg xmlns="http://www.w3.org/2000/svg" width="1000" height="1000" viewBox="0 0 1000 1000"><title>a-35 Shards art mockup</title><rect width="1000" height="1000" fill="#1c1917"/><polygon points="431,209 712,272 571,421" fill="#f59e0b" opacity="0.85"/><polygon points="578,657 852,683 715,746" fill="#ef4444" opacity="0.85"/><polygon points="409,434 556,462 482,527" fill="#faf7f2" opacity="0.85"/><polygon points="346,619 538,677 442,814" fill="#f59e0b" opacity="0.85"/><polygon points="334,644 524,716 429,881" fill="#ef4444" opacity="0.85"/><polygon points="383,445 465,515 424,677" fill="#faf7f2" opacity="0.85"/><polygon points="699,422 892,448 796,508" fill="#f59e0b" opacity="0.85"/><polygon points="140,81 359,109 250,175" fill="#ef4444" opacity="0.85"/><polygon points="640,210 894,274 767,424" fill="#faf7f2" opacity="0.85"/><polygon points="45,722 271,746 158,802" fill="#f59e0b" opacity="0.85"/><polygon points="556,289 706,338 631,453" fill="#ef4444" opacity="0.85"/><polygon points="155,184 451,220 303,305" fill="#faf7f2" opacity="0.85"/><polygon points="341,473 571,506 456,583" fill="#f59e0b" opacity="0.85"/><polygon points="137,598 319,640 228,737" fill="#ef4444" opacity="0.85"/><rect x="0" y="830" width="1000" height="170" fill="#1c1917" opacity="0.85"/><text x="60" y="905" font-size="44" font-weight="800" fill="#ffffff" font-family="Arial,Helvetica,sans-serif">Shards</text><text x="60" y="955" font-size="26" fill="#ffffff" opacity="0.8" font-family="Arial,Helvetica,sans-serif">a-35 · generative art mockup</text></svg>